<?xml version="1.0" standalone="no"?><!DOCTYPE svg PUBLIC "-//W3C//DTD SVG 1.1//EN" "http://www.w3.org/Graphics/SVG/1.1/DTD/svg11.dtd"><svg t="1620504320307" class="icon" viewBox="0 0 1024 1024" version="1.1" xmlns="http://www.w3.org/2000/svg" p-id="33861" xmlns:xlink="http://www.w3.org/1999/xlink" width="200" height="200"><defs><style type="text/css"></style></defs><path d="M911.2576 512c0-220.5184-178.7392-399.2576-399.2576-399.2576V512h399.2576z" fill="#DCEDFF" p-id="33862"></path><path d="M512 87.1424c-234.24 0-424.8576 190.5664-424.8576 424.8576 0 234.24 190.5664 424.8576 424.8576 424.8576s424.8576-190.5664 424.8576-424.8576c0-234.24-190.5664-424.8576-424.8576-424.8576z m25.6 52.1728c2.4064 0.1536 4.8128 0.3584 7.168 0.5632 2.5088 0.2048 5.0688 0.4096 7.5776 0.7168 3.6864 0.4096 7.2704 0.8704 10.9056 1.3824 2.3552 0.3072 4.6592 0.6144 6.9632 0.9728 3.9936 0.6144 7.9872 1.3824 11.9296 2.1504 1.8944 0.3584 3.7888 0.6656 5.6832 1.0752 11.6736 2.4064 23.1424 5.376 34.4064 8.8576 1.6896 0.512 3.3792 1.1264 5.0688 1.6896 3.8912 1.28 7.7824 2.56 11.6224 3.9424 2.048 0.768 4.096 1.5872 6.144 2.3552 3.4304 1.3312 6.8096 2.6112 10.1888 4.0448 2.1504 0.9216 4.3008 1.8944 6.4512 2.816 3.1744 1.3824 6.4 2.816 9.5232 4.3008 2.2016 1.024 4.352 2.0992 6.5024 3.1744 3.072 1.536 6.0928 3.072 9.1136 4.6592 2.1504 1.1264 4.2496 2.304 6.4 3.4816 2.9696 1.6384 5.9392 3.328 8.8576 5.0688 2.048 1.2288 4.1472 2.4576 6.1952 3.7376 2.9184 1.792 5.7856 3.6864 8.6528 5.5296 1.9968 1.28 3.9424 2.6112 5.888 3.9424 2.8672 1.9968 5.7344 4.0448 8.5504 6.0928 1.8432 1.3312 3.6864 2.6624 5.4784 4.0448 2.9184 2.2016 5.7856 4.5056 8.6528 6.8096 1.6384 1.28 3.2768 2.56 4.864 3.8912 3.1744 2.6624 6.2976 5.376 9.3696 8.1408 1.2288 1.0752 2.4576 2.0992 3.6352 3.2256 8.5504 7.7824 16.6912 15.9744 24.5248 24.5248 1.0752 1.1776 2.1504 2.4576 3.2256 3.6352 2.7648 3.072 5.4784 6.1952 8.0896 9.3696 1.3312 1.5872 2.6112 3.2768 3.9424 4.9152 2.304 2.8672 4.608 5.7344 6.8096 8.6528 1.3824 1.792 2.7136 3.6864 4.0448 5.5296 2.048 2.816 4.096 5.632 6.0928 8.5504 1.3312 1.9456 2.6624 3.9424 3.9424 5.9392 1.8944 2.8672 3.7376 5.7344 5.5296 8.6016 1.28 2.048 2.5088 4.096 3.7376 6.1952 1.7408 2.9184 3.4304 5.8368 5.0688 8.8064 1.1776 2.0992 2.3552 4.2496 3.4816 6.4 1.5872 3.0208 3.1744 6.0416 4.6592 9.1136 1.0752 2.1504 2.1504 4.3008 3.1744 6.5024 1.4848 3.1744 2.9184 6.3488 4.3008 9.5232 0.9216 2.1504 1.8944 4.3008 2.816 6.4512 1.3824 3.3792 2.7136 6.8096 4.0448 10.1888 0.768 2.048 1.5872 4.096 2.3552 6.144 1.3824 3.84 2.6624 7.7312 3.9424 11.6736 0.5632 1.6896 1.1264 3.328 1.6896 5.0176 3.4816 11.264 6.4512 22.784 8.9088 34.4576 0.3584 1.792 0.6656 3.6352 1.024 5.4784 0.768 4.0448 1.536 8.0896 2.2016 12.1856 0.3584 2.2528 0.6144 4.5056 0.9216 6.8096 0.512 3.6864 1.024 7.424 1.4336 11.1616 0.256 2.4576 0.4608 4.9152 0.6656 7.3728 0.2048 2.4576 0.4096 4.9152 0.5632 7.3216H537.6V139.3152z m-25.6 746.3424c-206.0288 0-373.6576-167.6288-373.6576-373.6576 0-197.4272 153.9072-359.4752 348.0576-372.6848V512c0 14.1312 11.4688 25.6 25.6 25.6h372.6848c-13.2096 194.0992-175.2576 348.0576-372.6848 348.0576z" fill="#5B90EF" p-id="33863"></path></svg>