<svg xmlns="http://www.w3.org/2000/svg" viewBox="0 0 134.26 144.85"><g><g><path d="M95.4 75.29c27.78-27.13 41.51-55.4 31.4-68.44C119.69-2.32 102.37-2 81.19 6c13.4-2.41 24.91 2.42 29.33 9C133.46 49 6.28 132.31 6.28 132.31c16.82-7.54 50-27.55 69.26-39.76A3 3 0 0 1 79.93 94l8.88 24.16h16.56L93.3 84.5a8.75 8.75 0 0 1 2.1-9.21z" fill="#fff"></path><path d="M48.61 95.9l15.84-47.5 8.92 26.47c.81-.66 1.59-1.32 2.38-2 3.49-3.26 6.91-6.59 10.16-10L75.37 31.65a11.52 11.52 0 0 0-10.92-7.84 11.52 11.52 0 0 0-10.92 7.86l-27 80.57c5.03-3.51 12.99-9.24 22.08-16.34z" fill="#fff"></path><path d="M23.82 113.76a56.34 56.34 0 0 1 80-78.75A32.38 32.38 0 0 0 107 23.69a67.13 67.13 0 0 0-91.92 96.39c2.65-1.9 5.6-4.01 8.74-6.32z" fill="#fff"></path><path d="M119.25 56.31a56.31 56.31 0 0 1-88.42 64.45c-3.6 1.84-7.09 3.58-10.39 5.17a67.11 67.11 0 0 0 105.9-79.83 113.83 113.83 0 0 1-7.09 10.21z" fill="#fff"></path><path d="M29.89 120c-3.45 1.94-6.79 3.79-9.95 5.49l.5.48c3.3-1.59 6.79-3.33 10.39-5.17-.31-.3-.63-.56-.94-.8zM116.56 50.69a56.29 56.29 0 0 1 2.69 5.63 113.83 113.83 0 0 0 7.09-10.2q-1.56-2.92-3.39-5.67a111.07 111.07 0 0 1-6.39 10.24z" fill="#aaa"></path></g></g></svg>