<svg xmlns="http://www.w3.org/2000/svg">
  <path fill="#fff" d="M6.40945 4.3861L4.71789 3.6423L3.19686 4.62987L3.21369 6.37917L4.97596 7.48641L9.44956 4.5818L9.80122 8.11953L5.27393 11.059L0.410734 8.52655L0 2.93947L4.52728 0L9.29936 2.50975L6.40945 4.3861L6.40945 4.3861Z" transform="translate(4.0175014 4.5860653)" />
  <path fill="#fff" d="M4.57697 0L6.96144 1.43434L2.32385 4.23232L2.32385 10.9899L6.90082 13.7273L5.18319 15.0606L0 12.2929L0 2.79798L4.57697 0L4.57697 0Z" transform="translate(0 2.53538)" />
  <path fill="#fff" d="M2.39458 0L0 1.43434L8.99229 6.76768L8.99229 13.5253L0.272799 18.7677L2.53603 20L11.3161 14.8283L11.3161 5.33333L2.39458 0L2.39458 0Z" transform="translate(6.466346 0)" />
</svg>